{"asset":{"version":"2.0","generator":"THREE.GLTFExporter"},"scenes":[{"nodes":[0,1]}],"scene":0,"nodes":[{"mesh":0},{"mesh":1}],"bufferViews":[{"buffer":0,"byteOffset":0,"byteLength":953832,"target":34962,"byteStride":12},{"buffer":0,"byteOffset":953832,"byteLength":1491408,"target":34962,"byteStride":12}],"buffers":[{"byteLength":2445240,"uri":"data:application/octet-stream;base64,"}],"accessors":[{"bufferView":0,"componentType":5126,"count":79486,"max":[347.90460205078125,337.77313232421875,53.58362579345703],"min":[-358.20703125,-357.8709716796875,11.037022590637207],"type":"VEC3"},{"bufferView":1,"componentType":5126,"count":124284,"max":[347.90460205078125,337.77313232421875,53.58362579345703],"min":[-358.20703125,-357.8709716796875,11.037022590637207],"type":"VEC3"}],"materials":[{"pbrMetallicRoughness":{"metallicFactor":0.5,"roughnessFactor":0.5}},{"pbrMetallicRoughness":{"baseColorFactor":[0,0,0,1],"metallicFactor":0,"roughnessFactor":0.9},"extensions":{"KHR_materials_unlit":{}}}],"meshes":[{"primitives":[{"mode":1,"attributes":{"POSITION":0},"material":0}]},{"primitives":[{"mode":4,"attributes":{"POSITION":1},"material":1}]}],"extensionsUsed":["KHR_materials_unlit"]}