{
  "asset": {
    "version": "2.0",
    "generator": "THREE.GLTFExporter"
  },
  "scenes": [
    {
      "name": "AuxScene",
      "nodes": [
        11
      ]
    }
  ],
  "scene": 0,
  "nodes": [
    {
      "name": "Cesium_Milk_Truck_1",
      "mesh": 0
    },
    {
      "name": "Cesium_Milk_Truck_2",
      "mesh": 1
    },
    {
      "name": "Cesium_Milk_Truck_3",
      "mesh": 2
    },
    {
      "matrix": [
        0.9843404952310914,
        0,
        0.17627759201954696,
        0,
        0,
        1,
        0,
        0,
        -0.17627759201954696,
        0,
        0.9843404952310914,
        0,
        0,
        0,
        0,
        1
      ],
      "name": "Wheels",
      "extras": {
        "name": "Wheels"
      },
      "mesh": 3
    },
    {
      "matrix": [
        1,
        0,
        0,
        0,
        0,
        1,
        0,
        0,
        0,
        0,
        1,
        0,
        1.432669997215271,
        0,
        -0.4277220070362091,
        1
      ],
      "name": "Node",
      "extras": {
        "name": "Node"
      },
      "children": [
        3
      ]
    },
    {
      "matrix": [
        0.9843404952310914,
        0,
        0.17627759201954696,
        0,
        0,
        1,
        0,
        0,
        -0.17627759201954696,
        0,
        0.9843404952310914,
        0,
        0,
        0,
        0,
        1
      ],
      "name": "Wheels001",
      "extras": {
        "name": "Wheels.001"
      },
      "mesh": 3
    },
    {
      "matrix": [
        1,
        0,
        0,
        0,
        0,
        1,
        0,
        0,
        0,
        0,
        1,
        0,
        -1.352329969406128,
        0,
        -0.4277220070362091,
        1
      ],
      "name": "Node001",
      "extras": {
        "name": "Node.001"
      },
      "children": [
        5
      ]
    },
    {
      "name": "Cesium_Milk_Truck",
      "extras": {
        "name": "Cesium_Milk_Truck"
      },
      "children": [
        0,
        1,
        2,
        4,
        6
      ]
    },
    {
      "matrix": [
        -4.440892098500626e-16,
        5.960464666276977e-8,
        0.9999999999999986,
        0,
        -1.0000000000000004,
        -4.440892098500626e-16,
        0,
        0,
        0,
        -0.9999999999999986,
        5.960464632970286e-8,
        0,
        0,
        0,
        0,
        1
      ],
      "name": "Yup2Zup",
      "extras": {
        "name": "Yup2Zup"
      },
      "children": [
        7
      ]
    },
    {
      "name": "Scene",
      "children": [
        8
      ]
    },
    {
      "name": "Labels"
    },
    {
      "matrix": [
        1,
        0,
        0,
        0,
        0,
        1,
        0,
        0,
        0,
        0,
        1,
        0,
        0,
        -1.2577896789275858,
        0,
        1
      ],
      "name": "TranslateGroup",
      "children": [
        9,
        10
      ]
    }
  ],
  "bufferViews": [
    {
      "buffer": 0,
      "byteOffset": 0,
      "byteLength": 28392,
      "target": 34962,
      "byteStride": 12
    },
    {
      "buffer": 0,
      "byteOffset": 28392,
      "byteLength": 28392,
      "target": 34962,
      "byteStride": 12
    },
    {
      "buffer": 0,
      "byteOffset": 56784,
      "byteLength": 18928,
      "target": 34962,
      "byteStride": 8
    },
    {
      "buffer": 0,
      "byteOffset": 75712,
      "byteLength": 10464,
      "target": 34963
    },
    {
      "buffer": 0,
      "byteOffset": 86176,
      "byteLength": 1812,
      "target": 34962,
      "byteStride": 12
    },
    {
      "buffer": 0,
      "byteOffset": 87988,
      "byteLength": 1812,
      "target": 34962,
      "byteStride": 12
    },
    {
      "buffer": 0,
      "byteOffset": 89800,
      "byteLength": 1208,
      "target": 34962,
      "byteStride": 8
    },
    {
      "buffer": 0,
      "byteOffset": 91008,
      "byteLength": 336,
      "target": 34963
    },
    {
      "buffer": 0,
      "byteOffset": 91344,
      "byteLength": 7800,
      "target": 34962,
      "byteStride": 12
    },
    {
      "buffer": 0,
      "byteOffset": 99144,
      "byteLength": 7800,
      "target": 34962,
      "byteStride": 12
    },
    {
      "buffer": 0,
      "byteOffset": 106944,
      "byteLength": 5200,
      "target": 34962,
      "byteStride": 8
    },
    {
      "buffer": 0,
      "byteOffset": 112144,
      "byteLength": 1728,
      "target": 34963
    },
    {
      "buffer": 0,
      "byteOffset": 113872,
      "byteLength": 9936,
      "target": 34962,
      "byteStride": 12
    },
    {
      "buffer": 0,
      "byteOffset": 123808,
      "byteLength": 9936,
      "target": 34962,
      "byteStride": 12
    },
    {
      "buffer": 0,
      "byteOffset": 133744,
      "byteLength": 6624,
      "target": 34962,
      "byteStride": 8
    },
    {
      "buffer": 0,
      "byteOffset": 140368,
      "byteLength": 4608,
      "target": 34963
    }
  ],
  "buffers": [
    {
      "byteLength": 144976,
      "uri": "data:application/octet-stream;base64,"
    }
  ],
  "accessors": [
    {
      "bufferView": 0,
      "componentType": 5126,
      "count": 2366,
      "max": [
        2.437999963760376,
        1.3960000276565552,
        -0.2667999863624573
      ],
      "min": [
        -2.430910110473633,
        -1.3960000276565552,
        -2.5843698978424072
      ],
      "type": "VEC3"
    },
    {
      "bufferView": 1,
      "componentType": 5126,
      "count": 2366,
      "max": [
        1,
        1,
        1
      ],
      "min": [
        -1,
        -1,
        -1
      ],
      "type": "VEC3"
    },
    {
      "bufferView": 2,
      "componentType": 5126,
      "count": 2366,
      "max": [
        0.8964580297470093,
        0.997245192527771
      ],
      "min": [
        0.0029563899151980877,
        0.015672028064727783
      ],
      "type": "VEC2"
    },
    {
      "bufferView": 3,
      "componentType": 5123,
      "count": 5232,
      "max": [
        2365
      ],
      "min": [
        0
      ],
      "type": "SCALAR"
    },
    {
      "bufferView": 4,
      "componentType": 5126,
      "count": 151,
      "max": [
        1.6011799573898315,
        1.3960000276565552,
        -1.631850004196167
      ],
      "min": [
        0.22885000705718994,
        -1.3960000276565552,
        -2.3545401096343994
      ],
      "type": "VEC3"
    },
    {
      "bufferView": 5,
      "componentType": 5126,
      "count": 151,
      "max": [
        0.9574828147888184,
        1,
        0.000015024716049083509
      ],
      "min": [
        -1,
        -1,
        -0.28851673007011414
      ],
      "type": "VEC3"
    },
    {
      "bufferView": 6,
      "componentType": 5126,
      "count": 151,
      "max": [
        0,
        1
      ],
      "min": [
        0,
        1
      ],
      "type": "VEC2"
    },
    {
      "bufferView": 7,
      "componentType": 5123,
      "count": 168,
      "max": [
        150
      ],
      "min": [
        0
      ],
      "type": "SCALAR"
    },
    {
      "bufferView": 8,
      "componentType": 5126,
      "count": 650,
      "max": [
        1.62267005443573,
        1.100000023841858,
        -1.5961999893188477
      ],
      "min": [
        0.1932000070810318,
        -1.1100000143051147,
        -2.3919999599456787
      ],
      "type": "VEC3"
    },
    {
      "bufferView": 9,
      "componentType": 5126,
      "count": 650,
      "max": [
        1,
        1,
        1
      ],
      "min": [
        -1,
        -1,
        -1
      ],
      "type": "VEC3"
    },
    {
      "bufferView": 10,
      "componentType": 5126,
      "count": 650,
      "max": [
        0,
        1
      ],
      "min": [
        0,
        1
      ],
      "type": "VEC2"
    },
    {
      "bufferView": 11,
      "componentType": 5123,
      "count": 864,
      "max": [
        649
      ],
      "min": [
        0
      ],
      "type": "SCALAR"
    },
    {
      "bufferView": 12,
      "componentType": 5126,
      "count": 828,
      "max": [
        0.4277999997138977,
        1.0579999685287476,
        0.4277999997138977
      ],
      "min": [
        -0.4277999997138977,
        -1.0579999685287476,
        -0.4277999997138977
      ],
      "type": "VEC3"
    },
    {
      "bufferView": 13,
      "componentType": 5126,
      "count": 828,
      "max": [
        0.999039351940155,
        1,
        0.9990394115447998
      ],
      "min": [
        -0.9990371465682983,
        -1,
        -0.9990371465682983
      ],
      "type": "VEC3"
    },
    {
      "bufferView": 14,
      "componentType": 5126,
      "count": 828,
      "max": [
        0.9936569929122925,
        0.9895756244659424
      ],
      "min": [
        0.6050930023193359,
        0.00905001163482666
      ],
      "type": "VEC2"
    },
    {
      "bufferView": 15,
      "componentType": 5123,
      "count": 2304,
      "max": [
        827
      ],
      "min": [
        0
      ],
      "type": "SCALAR"
    }
  ],
  "materials": [
    {
      "pbrMetallicRoughness": {
        "metallicFactor": 0,
        "roughnessFactor": 1,
        "baseColorTexture": {
          "index": 0,
          "texCoord": 0
        }
      },
      "name": "truck"
    },
    {
      "pbrMetallicRoughness": {
        "baseColorFactor": [
          0,
          0.04050629958510399,
          0.021240700036287308,
          1
        ],
        "metallicFactor": 0,
        "roughnessFactor": 1
      },
      "name": "glass"
    },
    {
      "pbrMetallicRoughness": {
        "baseColorFactor": [
          0.06400000303983688,
          0.06400000303983688,
          0.06400000303983688,
          1
        ],
        "metallicFactor": 0,
        "roughnessFactor": 1
      },
      "name": "window_trim"
    },
    {
      "pbrMetallicRoughness": {
        "metallicFactor": 0,
        "roughnessFactor": 1,
        "baseColorTexture": {
          "index": 0,
          "texCoord": 0
        }
      },
      "name": "wheels"
    }
  ],
  "textures": [
    {
      "sampler": 0,
      "source": 0,
      "name": "CesiumMilkTruck.jpg"
    }
  ],
  "samplers": [
    {
      "magFilter": 9729,
      "minFilter": 9987,
      "wrapS": 10497,
      "wrapT": 10497
    }
  ],
  "images": [
    {
      "mimeType": "image/jpeg",
      "uri": "data:image/jpeg;base64,"
    }
  ],
  "meshes": [
    {
      "primitives": [
        {
          "mode": 4,
          "attributes": {
            "POSITION": 0,
            "NORMAL": 1,
            "TEXCOORD_0": 2
          },
          "indices": 3,
          "material": 0
        }
      ]
    },
    {
      "primitives": [
        {
          "mode": 4,
          "attributes": {
            "POSITION": 4,
            "NORMAL": 5,
            "TEXCOORD_0": 6
          },
          "indices": 7,
          "material": 1
        }
      ]
    },
    {
      "primitives": [
        {
          "mode": 4,
          "attributes": {
            "POSITION": 8,
            "NORMAL": 9,
            "TEXCOORD_0": 10
          },
          "indices": 11,
          "material": 2
        }
      ]
    },
    {
      "primitives": [
        {
          "mode": 4,
          "attributes": {
            "POSITION": 12,
            "NORMAL": 13,
            "TEXCOORD_0": 14
          },
          "indices": 15,
          "material": 3
        }
      ]
    }
  ]
}